<?xml version="1.0" encoding="UTF-8" standalone="no"?>
<!DOCTYPE svg PUBLIC "-//W3C//DTD SVG 1.1//EN" "http://www.w3.org/Graphics/SVG/1.1/DTD/svg11.dtd">
<svg version="1.1" xmlns="http://www.w3.org/2000/svg" xmlns:xlink="http://www.w3.org/1999/xlink" preserveAspectRatio="xMidYMid meet" viewBox="0 0 640 640" width="640" height="640"><defs><path d="M488.18 550.75C513.93 572.25 553.81 554.25 553.81 520C553.81 480 553.81 160 553.81 120C553.81 85.75 513.93 67.75 488.18 89.25C464.18 109.25 272.18 269.25 248.18 289.25C229.06 305.25 229.06 334.75 248.18 350.75C296.18 390.75 464.18 530.75 488.18 550.75Z" id="i31rxRQesx"></path><path d="M219.96 79.94C227.63 79.94 233.84 86.15 233.84 93.82C233.84 186.2 233.84 449.45 233.84 541.83C233.84 549.5 227.63 555.71 219.96 555.71C193.21 555.71 126.83 555.71 100.07 555.71C92.41 555.71 86.19 549.5 86.19 541.83C86.19 449.45 86.19 186.2 86.19 93.82C86.19 86.15 92.41 79.94 100.07 79.94C126.83 79.94 193.21 79.94 219.96 79.94Z" id="bPLI5iS9p"></path></defs><g><g><g><g><use xlink:href="#i31rxRQesx" opacity="1" fill="#212F3C" fill-opacity="1"></use><g><use xlink:href="#i31rxRQesx" opacity="1" fill-opacity="0" stroke="#000000" stroke-width="1" stroke-opacity="0"></use></g></g><g><use xlink:href="#bPLI5iS9p" opacity="1" fill="#f7f9f9" fill-opacity="1"></use></g></g></g></g></svg>