<?xml version="1.0" encoding="UTF-8" standalone="no"?>
<!DOCTYPE svg PUBLIC "-//W3C//DTD SVG 1.1//EN" "http://www.w3.org/Graphics/SVG/1.1/DTD/svg11.dtd">
<svg version="1.1" xmlns="http://www.w3.org/2000/svg" xmlns:xlink="http://www.w3.org/1999/xlink" preserveAspectRatio="xMidYMid meet" viewBox="0 0 640 640" width="640" height="640"><defs><path d="M151.82 89.22C126.07 67.85 86.19 85.72 86.19 119.97C86.19 159.97 86.19 479.97 86.19 519.97C86.19 554.22 126.07 572.22 151.82 550.72C175.82 530.72 367.82 370.72 391.82 350.72C410.94 334.72 410.94 305.22 391.82 289.22C343.82 249.22 175.82 109.22 151.82 89.22Z" id="agXl6eE8L"></path><path d="M539.93 79.96C547.59 79.96 553.81 86.18 553.81 93.85C553.81 187.08 553.81 452.92 553.81 546.15C553.81 553.82 547.59 560.04 539.93 560.04C513.17 560.04 446.79 560.04 420.04 560.04C412.37 560.04 406.16 553.82 406.16 546.15C406.16 452.92 406.16 187.08 406.16 93.85C406.16 86.18 412.37 79.96 420.04 79.96C446.79 79.96 513.17 79.96 539.93 79.96Z" id="f1fdUBwoB"></path></defs><g><g><g><g><use xlink:href="#agXl6eE8L" opacity="1" fill="#212F3C" fill-opacity="1"></use><g><use xlink:href="#agXl6eE8L" opacity="1" fill-opacity="0" stroke="#000000" stroke-width="1" stroke-opacity="0"></use></g></g><g><use xlink:href="#f1fdUBwoB" opacity="1" fill="#f7f9f9" fill-opacity="1"></use></g></g></g></g></svg>